<?xml version="1.0" encoding="UTF-8"?>
<svg version="1.1" xmlns="http://www.w3.org/2000/svg" width="1440" height="241">
<path d="M0 0 C1.89369827 -0.00956978 1.89369827 -0.00956978 3.82565308 -0.01933289 C5.21335817 -0.02086298 6.60106378 -0.02197618 7.98876953 -0.02270508 C9.41447991 -0.02592014 10.84018996 -0.0292844 12.26589966 -0.03279114 C15.26369997 -0.03878941 18.26147145 -0.04063069 21.25927734 -0.04003906 C25.06952533 -0.03993824 28.87958358 -0.05350323 32.68978691 -0.07081127 C35.64123349 -0.0820348 38.592636 -0.08395501 41.54410172 -0.08342934 C42.94647999 -0.08459728 44.34885987 -0.08895114 45.75121689 -0.0967617 C61.80067814 -0.17767039 77.26019902 1.48829013 89.99658203 12.14526367 C98.40831462 20.75727561 101.26158752 30.32497577 101.24316406 42.07519531 C101.15482611 47.40875059 100.66936222 51.53321064 97.99658203 56.14526367 C97.57119141 56.89163086 97.14580078 57.63799805 96.70751953 58.40698242 C93.57705973 63.47096152 90.01495719 67.84710474 84.99658203 71.14526367 C84.33658203 71.14526367 83.67658203 71.14526367 82.99658203 71.14526367 C82.99658203 71.80526367 82.99658203 72.46526367 82.99658203 73.14526367 C83.57537109 73.26256836 84.15416016 73.37987305 84.75048828 73.50073242 C92.69047472 75.77916331 99.76467905 81.95446708 103.86376953 88.95385742 C108.86571144 98.63002781 110.00837293 109.48277191 107.99658203 120.14526367 C106.99658203 121.14526367 106.99658203 121.14526367 104.67993164 121.25878906 C103.67969971 121.25355225 102.67946777 121.24831543 101.64892578 121.24291992 C100.56933594 121.23969727 99.48974609 121.23647461 98.37744141 121.2331543 C97.24113281 121.22477539 96.10482422 121.21639648 94.93408203 121.20776367 C93.79390625 121.20325195 92.65373047 121.19874023 91.47900391 121.1940918 C88.65147852 121.18226115 85.82405563 121.16577777 82.99658203 121.14526367 C83.15666748 120.55519531 83.31675293 119.96512695 83.48168945 119.35717773 C85.01882999 112.7538144 85.25513064 103.76595817 82.37158203 97.52026367 C78.1899451 90.80341829 72.42972396 87.93750459 64.99658203 86.14526367 C58.36379136 85.17302951 51.74330419 85.00674253 45.05126953 85.04760742 C43.70743698 85.04972984 43.70743698 85.04972984 42.3364563 85.05189514 C39.5147955 85.05742926 36.69321827 85.06996878 33.87158203 85.08276367 C31.94189569 85.08778721 30.01220808 85.09234861 28.08251953 85.09643555 C23.38715005 85.1065201 18.691958 85.12610756 13.99658203 85.14526367 C13.99658203 97.02526367 13.99658203 108.90526367 13.99658203 121.14526367 C6.73658203 121.14526367 -0.52341797 121.14526367 -8.00341797 121.14526367 C-8.00341797 81.54526367 -8.00341797 41.94526367 -8.00341797 1.14526367 C-5.26251344 -0.22518859 -3.06807993 0.01049734 0 0 Z M13.99658203 21.14526367 C13.99658203 35.33526367 13.99658203 49.52526367 13.99658203 64.14526367 C20.69970703 64.18651367 27.40283203 64.22776367 34.30908203 64.27026367 C37.44790894 64.29757568 37.44790894 64.29757568 40.65014648 64.32543945 C59.3090337 64.94835659 59.3090337 64.94835659 74.99658203 56.14526367 C79.98009921 50.10392445 79.6043326 43.6885207 78.99658203 36.14526367 C77.49644503 29.86090595 73.76214253 26.7358574 68.50830078 23.27416992 C62.27703666 20.47349289 55.16487476 21.01116109 48.46923828 21.04760742 C47.48032089 21.04902237 46.4914035 21.05043732 45.47251892 21.05189514 C42.33467499 21.05746279 39.19690416 21.07000928 36.05908203 21.08276367 C33.92301536 21.08778285 31.78694756 21.09234503 29.65087891 21.09643555 C24.43272958 21.10656788 19.214737 21.12614955 13.99658203 21.14526367 Z " fill="#A5A5A5" transform="translate(1081.00341796875,119.854736328125)"/>
<path d="M0 0 C1.90436325 -0.01441132 1.90436325 -0.01441132 3.84719849 -0.02911377 C5.24432189 -0.03396775 6.6414474 -0.03824509 8.03857422 -0.04199219 C9.09809107 -0.04623325 9.09809107 -0.04623325 10.1790123 -0.05056 C13.93217087 -0.06558008 17.68529089 -0.07478592 21.43847656 -0.07910156 C25.27307397 -0.08452674 29.10730546 -0.10841748 32.94178963 -0.13707352 C35.92256591 -0.15595139 38.90325948 -0.16091907 41.88409042 -0.16243744 C43.29434032 -0.16541882 44.70459041 -0.17328934 46.11478043 -0.18662262 C66.58060928 -0.36597903 84.17492233 3.65236453 99.96826172 17.16113281 C116.88796153 36.98228403 121.64167657 62.38317046 119.69091797 87.77050781 C118.90967686 94.82399895 117.4992984 101.4795302 115.53076172 108.28613281 C115.22295776 109.35214722 115.22295776 109.35214722 114.90893555 110.43969727 C113.70238762 114.38586868 112.51124762 117.89558959 109.96826172 121.16113281 C107.2409668 121.72875977 107.2409668 121.72875977 103.98779297 121.64941406 C102.82441406 121.63330078 101.66103516 121.6171875 100.46240234 121.60058594 C99.24746094 121.55869141 98.03251953 121.51679688 96.78076172 121.47363281 C95.55421875 121.45107422 94.32767578 121.42851562 93.06396484 121.40527344 C90.03084613 121.34626335 87.0001595 121.26397873 83.96826172 121.16113281 C84.51095703 120.16855469 85.05365234 119.17597656 85.61279297 118.15332031 C92.14812906 105.8754095 95.26962438 94.1120472 95.96826172 80.16113281 C96.00951172 79.45085937 96.05076172 78.74058594 96.09326172 78.00878906 C96.5646927 62.1863866 92.97312344 47.54765191 84.15576172 34.47363281 C77.2121929 27.13328863 70.01325 23.59613114 59.96826172 22.16113281 C44.78826172 21.83113281 29.60826172 21.50113281 13.96826172 21.16113281 C13.96826172 54.16113281 13.96826172 87.16113281 13.96826172 121.16113281 C6.70826172 121.16113281 -0.55173828 121.16113281 -8.03173828 121.16113281 C-8.03173828 81.56113281 -8.03173828 41.96113281 -8.03173828 1.16113281 C-5.28611231 -0.21168017 -3.07334489 0.01874008 0 0 Z " fill="#A9A9A9" transform="translate(432.03173828125,119.8388671875)"/>
<path d="M0 0 C0.91974609 -0.01224609 1.83949219 -0.02449219 2.78710938 -0.03710938 C3.67076172 -0.03904297 4.55441406 -0.04097656 5.46484375 -0.04296875 C6.27429443 -0.04707764 7.08374512 -0.05118652 7.91772461 -0.05541992 C10.0625 0.1875 10.0625 0.1875 13.0625 2.1875 C14.27001953 4.65161133 14.27001953 4.65161133 15.4453125 7.76953125 C15.88593018 8.91905273 16.32654785 10.06857422 16.78051758 11.25292969 C17.12465195 12.1696344 17.12465195 12.1696344 17.47573853 13.1048584 C18.67875605 16.30802216 19.91256579 19.49928841 21.14453125 22.69140625 C21.39105942 23.33222137 21.63758759 23.9730365 21.8915863 24.63327026 C24.08058993 30.29720031 26.44231499 35.87482678 28.875 41.4375 C31.73553654 47.99562099 34.38344857 54.57951157 36.82543945 61.30371094 C38.97928902 67.15103834 41.52379665 72.79610925 44.09741211 78.46850586 C46.60414256 84.03828448 48.8151075 89.67042263 50.90527344 95.40771484 C52.97949313 101.07127356 55.32859513 106.5854895 57.765625 112.1015625 C59.01387442 115.07179454 60.04365727 118.13097182 61.0625 121.1875 C52.8125 121.1875 44.5625 121.1875 36.0625 121.1875 C32.0625 112.1875 32.0625 112.1875 32.0625 109.1875 C11.2725 109.1875 -9.5175 109.1875 -30.9375 109.1875 C-31.2675 110.8375 -31.5975 112.4875 -31.9375 114.1875 C-32.9275 116.4975 -33.9175 118.8075 -34.9375 121.1875 C-42.5275 121.1875 -50.1175 121.1875 -57.9375 121.1875 C-54.56082657 109.93192191 -54.56082657 109.93192191 -52.73828125 105.2265625 C-52.13741699 103.66893188 -52.13741699 103.66893188 -51.52441406 102.07983398 C-51.10385742 101.00161377 -50.68330078 99.92339355 -50.25 98.8125 C-49.81010742 97.67562744 -49.37021484 96.53875488 -48.91699219 95.36743164 C-45.90648052 87.60877927 -42.81521583 79.88466332 -39.69433594 72.16992188 C-37.65608892 67.09392273 -35.7758096 61.98561708 -34 56.8125 C-31.38063839 49.18329143 -28.35505128 41.74796776 -25.26513672 34.29858398 C-22.94511317 28.69325368 -20.72161085 23.06755813 -18.625 17.375 C-12.20326782 0.00851589 -12.20326782 0.00851589 0 0 Z M-0.9375 23.1875 C-1.07736328 23.71891602 -1.21722656 24.25033203 -1.36132812 24.79785156 C-4.26949325 35.71515954 -7.565623 46.26201314 -11.89111328 56.70263672 C-16.42744754 67.67721826 -20.18365175 78.92595524 -23.9375 90.1875 C-8.0975 90.1875 7.7425 90.1875 24.0625 90.1875 C21.74774836 82.35580288 21.74774836 82.35580288 19.08203125 74.69921875 C18.7264917 73.75594727 18.37095215 72.81267578 18.00463867 71.84082031 C17.63185791 70.86209961 17.25907715 69.88337891 16.875 68.875 C16.48352783 67.83827148 16.09205566 66.80154297 15.6887207 65.73339844 C13.75161529 60.60992043 11.7980518 55.49285296 9.8359375 50.37890625 C9.1404111 48.56518618 8.44509171 46.75138671 7.75 44.9375 C7.4197583 44.07576172 7.0895166 43.21402344 6.74926758 42.32617188 C4.3393094 36.00133908 2.09473363 29.64518975 0.0625 23.1875 C-0.2675 23.1875 -0.5975 23.1875 -0.9375 23.1875 Z " fill="#9A9A9A" transform="translate(958.9375,119.8125)"/>
<path d="M0 0 C0.91003281 -0.00281982 1.82006561 -0.00563965 2.75767517 -0.00854492 C4.25935242 -0.00550858 4.25935242 -0.00550858 5.79136658 -0.00241089 C6.84343796 -0.00416321 7.89550934 -0.00591553 8.97946167 -0.00772095 C12.47008394 -0.0121358 15.96065587 -0.00920295 19.45127869 -0.00582886 C21.8674114 -0.00650195 24.28354404 -0.00747202 26.69967651 -0.00872803 C31.76800683 -0.01020446 36.83631955 -0.00805199 41.90464783 -0.00338745 C48.41753316 0.00231284 54.93037732 -0.00097142 61.44326115 -0.00695992 C66.43333245 -0.01056439 71.42339391 -0.00942752 76.4134655 -0.00683212 C78.81576479 -0.0061627 81.21806497 -0.00699182 83.62036324 -0.00931168 C86.97035738 -0.01183667 90.32028376 -0.00799991 93.67027283 -0.00241089 C94.67341522 -0.00443512 95.67655762 -0.00645935 96.71009827 -0.00854492 C98.07091774 -0.00431519 98.07091774 -0.00431519 99.45922852 0 C100.25213822 0.00037703 101.04504793 0.00075405 101.86198521 0.0011425 C103.66612244 0.12698364 103.66612244 0.12698364 104.66612244 1.12698364 C104.66612244 7.72698364 104.66612244 14.32698364 104.66612244 21.12698364 C75.29612244 21.12698364 45.92612244 21.12698364 15.66612244 21.12698364 C15.66612244 35.64698364 15.66612244 50.16698364 15.66612244 65.12698364 C43.38612244 65.12698364 71.10612244 65.12698364 99.66612244 65.12698364 C99.66612244 71.39698364 99.66612244 77.66698364 99.66612244 84.12698364 C96.57095809 85.67456582 93.3075617 85.25658255 89.91172791 85.24050903 C89.11164307 85.24065506 88.31155823 85.24080109 87.48722839 85.24095154 C84.8358949 85.24025344 82.18463119 85.23246586 79.53330994 85.22463989 C77.69770852 85.22277535 75.86210661 85.22135162 74.02650452 85.22035217 C69.18989188 85.21652988 64.35330917 85.20670203 59.51670837 85.19564819 C53.71642678 85.18363169 47.9161352 85.17903046 42.11584473 85.17319489 C33.29924981 85.16349014 24.48272057 85.14433156 15.66612244 85.12698364 C15.66612244 97.00698364 15.66612244 108.88698364 15.66612244 121.12698364 C8.40612244 121.12698364 1.14612244 121.12698364 -6.33387756 121.12698364 C-6.33387756 81.52698364 -6.33387756 41.92698364 -6.33387756 1.12698364 C-3.98887221 -0.04551903 -2.61322396 0.00124199 0 0 Z " fill="#AAAAAA" transform="translate(262.33387756347656,119.87301635742188)"/>
<path d="M0 0 C6.77550544 6.07053955 12.32013888 16.14482163 13.52734375 25.19140625 C13.61407146 26.7729115 13.65765876 28.35753368 13.65234375 29.94140625 C13.65621094 31.10929687 13.65621094 31.10929687 13.66015625 32.30078125 C13.52734375 34.19140625 13.52734375 34.19140625 12.52734375 35.19140625 C11.11406428 35.3476118 9.69379785 35.44196798 8.2734375 35.5078125 C7.41943359 35.54970703 6.56542969 35.59160156 5.68554688 35.63476562 C4.78771484 35.67408203 3.88988281 35.71339844 2.96484375 35.75390625 C2.06314453 35.79708984 1.16144531 35.84027344 0.23242188 35.88476562 C-2.0024411 35.99118767 -4.23741933 36.09320613 -6.47265625 36.19140625 C-6.66384033 35.60190186 -6.85502441 35.01239746 -7.05200195 34.4050293 C-11.60349486 20.45421256 -11.60349486 20.45421256 -22.47265625 11.19140625 C-33.56226528 6.06562914 -49.87705543 6.33247775 -61.41015625 9.87890625 C-67.3411341 12.29523056 -71.07813066 14.77422857 -74.34765625 20.44140625 C-76.08150198 26.220892 -76.36318733 30.90146918 -74.16015625 36.56640625 C-67.83515276 46.40530056 -54.51607346 48.18765033 -43.80297852 50.70202637 C-40.26524569 51.53425092 -36.73640569 52.40265836 -33.20703125 53.26953125 C-32.52479492 53.43656555 -31.84255859 53.60359985 -31.13964844 53.7756958 C-12.75454513 58.30398271 4.31618999 63.70645163 14.77734375 80.62890625 C19.27968748 89.79439171 20.00584488 100.27740175 17.52734375 110.19140625 C10.26734375 110.19140625 3.00734375 110.19140625 -4.47265625 110.19140625 C-4.36953125 107.69578125 -4.26640625 105.20015625 -4.16015625 102.62890625 C-4.00989339 94.9368978 -4.00989339 94.9368978 -7.82421875 88.5 C-18.78377944 79.79987481 -33.71626214 77.324198 -47.02612305 74.06640625 C-65.60943694 69.48014542 -82.6905329 64.49746726 -94.47265625 48.19140625 C-99.52627388 37.58504826 -100.01382147 27.15254514 -96.53515625 16.00390625 C-92.13038682 4.84929297 -83.7049032 -3.15787631 -72.8125 -7.98828125 C-48.95430054 -17.18258034 -20.80766164 -15.21950607 0 0 Z " fill="#AAAAAA" transform="translate(1339.47265625,130.80859375)"/>
<path d="M0 0 C0.78331475 0.00054477 1.56662951 0.00108953 2.37368107 0.00165081 C3.2724094 -0.00254368 4.17113773 -0.00673817 5.09710026 -0.01105976 C6.58003826 -0.0026305 6.58003826 -0.0026305 8.09293461 0.00596905 C9.13203983 0.0040707 10.17114506 0.00217236 11.24173832 0.00021648 C14.69034112 -0.00350025 18.13873516 0.00722643 21.58731937 0.01842022 C23.97624022 0.01961172 26.36516155 0.02006525 28.75408268 0.01980877 C33.76696539 0.02137523 38.77977685 0.0296768 43.79264164 0.04307842 C50.22686498 0.06005929 56.66100987 0.0638931 63.09525299 0.06313324 C68.03050839 0.06340486 72.96574654 0.06888498 77.90099621 0.07613468 C80.27373022 0.07932305 82.64646619 0.08128915 85.01920223 0.08202839 C88.3328762 0.08419067 91.64646612 0.09293288 94.96012211 0.1036253 C95.94672321 0.10317211 96.93332432 0.10271893 97.94982243 0.10225201 C98.85137058 0.10651699 99.75291874 0.11078197 100.68178654 0.1151762 C101.8573242 0.11768997 101.8573242 0.11768997 103.05661011 0.12025452 C105.09122562 0.24888897 105.09122562 0.24888897 108.09122562 1.24888897 C109.86885878 18.25311721 109.86885878 18.25311721 105.99356937 23.94810772 C103.72170715 26.72835285 101.17750282 29.22935399 98.59610844 31.72056866 C96.15960552 34.19501841 94.14923668 36.95914065 92.09122562 39.74888897 C88.72615821 44.20576355 85.22782724 48.51106985 81.59122562 52.74888897 C77.91808504 57.0309942 74.38229625 61.38381638 70.96622562 65.87388897 C66.47334465 71.77931774 61.82269644 77.5332139 57.09122562 83.24888897 C54.81884344 85.99761244 52.54820673 88.74776978 50.27872562 91.49888897 C49.68358158 92.2202 49.08843754 92.94151104 48.47525883 93.68467999 C43.96110683 99.16671694 39.50413378 104.69207774 35.08609867 110.25181866 C34.18522483 111.38467512 33.27323902 112.50880228 32.34928226 113.62291241 C30.86203157 115.47129089 30.86203157 115.47129089 29.11466312 118.65123272 C24.13771256 122.9272949 18.59305395 121.87868339 12.27872562 121.62388897 C10.38090336 121.5832835 10.38090336 121.5832835 8.44474125 121.54185772 C5.32517093 121.47122594 2.20906722 121.37262543 -0.90877438 121.24888897 C0.36606979 118.5214276 1.74652066 116.26573409 3.67325687 113.95592022 C4.18646488 113.3343504 4.69967289 112.71278057 5.22843266 112.0723753 C5.78127934 111.40874981 6.33412601 110.74512432 6.90372562 110.06138897 C11.63562057 104.31892009 16.23259716 98.49954993 20.71622562 92.56138897 C25.04802834 86.83455493 29.52126166 81.28795016 34.20890141 75.84971905 C37.95461372 71.48017786 41.36645711 66.91107481 44.77872562 62.28013897 C47.27854319 59.00335108 49.90529428 55.87288514 52.59122562 52.74888897 C57.71744019 46.78196096 62.41983957 40.58042734 67.09122562 34.24888897 C68.35432171 32.55558986 69.62452087 30.8675519 70.90372562 29.18638897 C71.42579594 28.49416241 71.94786625 27.80193584 72.48575687 27.08873272 C74.09122562 25.24888897 74.09122562 25.24888897 78.09122562 22.24888897 C51.36122562 21.91888897 24.63122562 21.58888897 -2.90877438 21.24888897 C-4.55054212 17.96535348 -4.09331477 14.35369258 -4.09627438 10.74888897 C-4.10852047 9.96384991 -4.12076656 9.17881084 -4.13338375 8.36998272 C-4.13863692 6.32825171 -4.03097618 4.28696646 -3.90877438 2.24888897 C-1.90877438 0.24888897 -1.90877438 0.24888897 0 0 Z " fill="#B2B2B2" transform="translate(603.9087743759155,119.75111103057861)"/>
<path d="M0 0 C10.67719006 9.3425413 17.9163243 19.63466456 20.28125 33.82421875 C16.09052958 35.28241194 11.91752373 36.45490145 7.59375 37.44921875 C5.91732422 37.83980469 5.91732422 37.83980469 4.20703125 38.23828125 C1.28125 38.82421875 1.28125 38.82421875 -1.71875 38.82421875 C-2.01007813 38.05078125 -2.30140625 37.27734375 -2.6015625 36.48046875 C-5.22013926 29.82697812 -7.89860419 24.13785568 -12.71875 18.82421875 C-13.28078125 18.19644531 -13.8428125 17.56867188 -14.421875 16.921875 C-21.71104541 9.67864474 -31.00233085 7.66372184 -41.03125 7.26171875 C-52.34755007 7.60144204 -64.4969853 10.65800651 -72.71875 18.82421875 C-73.41484375 19.50613281 -74.1109375 20.18804687 -74.828125 20.890625 C-86.29193048 32.91925301 -89.93608268 50.76232679 -89.72265625 67.03515625 C-89.26908987 80.0696131 -88.19262336 96.28057337 -80.09375 106.96875 C-78.71875 108.82421875 -78.71875 108.82421875 -78.71875 110.82421875 C-86.96875 110.82421875 -95.21875 110.82421875 -103.71875 110.82421875 C-107.04071965 103.51588551 -109.54827271 97.8663341 -110.96875 90.26171875 C-111.13149414 89.43744385 -111.29423828 88.61316895 -111.46191406 87.76391602 C-112.54446138 82.13944917 -113.48082169 76.55518754 -113.71875 70.82421875 C-113.75871094 70.06882812 -113.79867187 69.3134375 -113.83984375 68.53515625 C-114.51095302 44.29626847 -106.8528406 22.60481343 -90.28125 5.07421875 C-67.65294965 -16.63671808 -24.73970312 -19.7988716 0 0 Z " fill="#B0B0B0" transform="translate(182.71875,130.17578125)"/>
<path d="M0 0 C0.77279297 0.00410889 1.54558594 0.00821777 2.34179688 0.01245117 C3.60443359 0.01535156 3.60443359 0.01535156 4.89257812 0.01831055 C5.77300781 0.03055664 6.6534375 0.04280273 7.56054688 0.05541992 C8.88119141 0.05638672 8.88119141 0.05638672 10.22851562 0.05737305 C16.77974573 0.10251935 16.77974573 0.10251935 19.06054688 1.24291992 C19.06054688 40.84291992 19.06054688 80.44291992 19.06054688 121.24291992 C11.47054687 121.24291992 3.88054688 121.24291992 -3.93945312 121.24291992 C-3.98456333 105.76179323 -4.0214209 90.28069894 -4.04307747 74.79952431 C-4.05339931 67.61168697 -4.06747692 60.4238933 -4.09033203 53.23608398 C-4.11023819 46.97272856 -4.12316295 40.70940475 -4.12763011 34.44601858 C-4.13024223 31.12819883 -4.13744144 27.8104909 -4.15091324 24.49269485 C-4.16534381 20.79300733 -4.16743461 17.09350978 -4.16650391 13.39379883 C-4.17369446 12.2882515 -4.18088501 11.18270416 -4.18829346 10.0436554 C-4.18554413 9.03962173 -4.1827948 8.03558807 -4.17996216 7.00112915 C-4.18180574 6.12542582 -4.18364933 5.24972248 -4.18554878 4.34748268 C-3.84838363 1.46411108 -2.91798583 0.36548287 0 0 Z " fill="#A2A2A2" transform="translate(762.939453125,119.757080078125)"/>
<path d="M0 0 C0.73089844 0.36738281 1.46179687 0.73476563 2.21484375 1.11328125 C2.87355469 1.36722656 3.53226563 1.62117188 4.2109375 1.8828125 C5.90234375 2.67578125 5.90234375 2.67578125 8.21484375 5.11328125 C8.70452764 8.83165016 8.56180297 12.38668224 8.21484375 16.11328125 C7.80234375 15.7265625 7.38984375 15.33984375 6.96484375 14.94140625 C-2.42751827 6.47150836 -11.44824274 4.35484681 -23.86767578 4.9296875 C-28.036183 5.32881119 -31.29116824 6.90960416 -34.78515625 9.11328125 C-35.40648437 9.46390625 -36.0278125 9.81453125 -36.66796875 10.17578125 C-43.25164557 14.27989148 -47.89486821 21.45174582 -50.30859375 28.765625 C-52.56820962 39.8970114 -50.4671176 49.36941438 -44.65625 58.98046875 C-40.163215 65.023366 -32.95436539 69.20732077 -25.78515625 71.11328125 C-12.85582251 72.26553275 -4.06890244 70.08843136 6.21484375 62.11328125 C7.20484375 61.12328125 7.20484375 61.12328125 8.21484375 60.11328125 C8.827488 63.93890426 9.06686722 67.31315204 8.21484375 71.11328125 C2.15419261 77.22174817 -6.88040905 79.32651721 -15.24267578 79.49365234 C-28.69386143 79.46213732 -38.06338618 76.49501007 -47.9140625 67.078125 C-52.85779567 61.91588428 -55.6185172 56.89473906 -57.78515625 50.11328125 C-58.28015625 48.62828125 -58.28015625 48.62828125 -58.78515625 47.11328125 C-59.59480585 34.05270411 -59.19413764 22.58740139 -50.5390625 12.0234375 C-44.32697796 5.25793786 -38.58123837 0.92358185 -29.78515625 -1.88671875 C-20.79578193 -4.88317686 -8.55206174 -3.83459163 0 0 Z " fill="#FFFFFF" transform="translate(1431.78515625,45.88671875)"/>
<path d="M0 0 C3.815625 -0.061875 7.63125 -0.12375 11.5625 -0.1875 C13.34636108 -0.22846802 13.34636108 -0.22846802 15.16625977 -0.27026367 C22.17506856 -0.32513523 27.15594592 0.0970214 32.8828125 4.421875 C35.11541975 7.5756279 35.10018075 11.23696062 35 15 C33.40920027 20.39104354 31.39977894 22.67492116 27 26 C27.45439453 26.43868408 27.90878906 26.87736816 28.37695312 27.3293457 C30.42574719 29.31588795 32.46291556 31.31395499 34.5 33.3125 C35.57314453 34.34793945 35.57314453 34.34793945 36.66796875 35.40429688 C37.34472656 36.07138672 38.02148438 36.73847656 38.71875 37.42578125 C39.34716797 38.03848877 39.97558594 38.65119629 40.62304688 39.2824707 C42 41 42 41 42 44 C37.68223554 45.06757912 34.30648951 45.19546266 30 44 C26.53006183 41.23849596 23.73823211 37.88322655 20.98583984 34.42358398 C20.43750488 33.74884033 19.88916992 33.07409668 19.32421875 32.37890625 C18.85072998 31.7557251 18.37724121 31.13254395 17.8894043 30.49047852 C15.47178821 28.32681354 15.47178821 28.32681354 9 28 C9 33.28 9 38.56 9 44 C6.03 44 3.06 44 0 44 C0 29.48 0 14.96 0 0 Z M9 7 C9 11.29 9 15.58 9 20 C10.7325 20.061875 12.465 20.12375 14.25 20.1875 C15.22453125 20.22230469 16.1990625 20.25710937 17.203125 20.29296875 C20.41698464 19.95632144 21.69740346 19.22319666 24 17 C25.08024658 14.59889783 25.08024658 14.59889783 25 12 C23.6990538 9.53504931 22.86115186 8.28705062 20.18359375 7.39453125 C17.82246017 6.96792214 15.64761566 6.90224095 13.25 6.9375 C11.8475 6.958125 10.445 6.97875 9 7 Z " fill="#FFFFFF" transform="translate(1398,61)"/>
<path d="M0 0 C3.70087882 0.45600114 7.34489897 1.26802918 11 2 C12.31677734 2.23589844 12.31677734 2.23589844 13.66015625 2.4765625 C14.45292969 2.62867188 15.24570313 2.78078125 16.0625 2.9375 C17.13177734 3.13666016 17.13177734 3.13666016 18.22265625 3.33984375 C20 4 20 4 22 7 C21.609375 9.3046875 21.609375 9.3046875 20.75 11.875 C20.47671875 12.71804687 20.2034375 13.56109375 19.921875 14.4296875 C19.0086973 16.97575076 18.00456418 19.48858955 17 22 C8.42 22 -0.16 22 -9 22 C-8.34 20.35 -7.68 18.7 -7 17 C-6.50382123 15.68427572 -6.01266957 14.36664111 -5.52734375 13.046875 C-5.26759766 12.345625 -5.00785156 11.644375 -4.74023438 10.921875 C-4.19952733 9.45894012 -3.66049759 7.99538432 -3.12304688 6.53125 C-1.11024945 1.11024945 -1.11024945 1.11024945 0 0 Z " fill="#727272" transform="translate(184,219)"/>
<path d="M0 0 C2.0052841 2.65591263 2.57206486 5.51596389 3.41772461 8.7121582 C3.75030273 9.9496582 4.08288086 11.1871582 4.42553711 12.4621582 C4.71170898 13.5346582 4.99788086 14.6071582 5.29272461 15.7121582 C5.62272461 16.7021582 5.95272461 17.6921582 6.29272461 18.7121582 C-1.62727539 18.7121582 -9.54727539 18.7121582 -17.70727539 18.7121582 C-21.08227539 6.3371582 -21.08227539 6.3371582 -20.70727539 0.7121582 C-17.60614087 0.28953993 -14.50150715 -0.09625323 -11.39477539 -0.4753418 C-10.51370117 -0.59586914 -9.63262695 -0.71639648 -8.72485352 -0.84057617 C-7.87729492 -0.94047852 -7.02973633 -1.04038086 -6.15649414 -1.14331055 C-5.3762085 -1.24281006 -4.59592285 -1.34230957 -3.79199219 -1.44482422 C-1.70727539 -1.2878418 -1.70727539 -1.2878418 0 0 Z " fill="#727272" transform="translate(1255.707275390625,222.287841796875)"/>
</svg>
