<svg xmlns="http://www.w3.org/2000/svg" viewBox="0 0 64 64" id="google-meet"><path fill="#1d83f2" fill-rule="evenodd" d="m17,41.98v-20s-10.95-2.05-12.7-.3c-.19.19-.3.45-.3.72v20.52c0,2.85,13-.94,13-.94Z"></path><path fill="#0ba84a" fill-rule="evenodd" d="m36,32.02v9.96h-19.16l-.42,13.04h28.09c2.48,0,4.5-2.01,4.5-4.5v-18.5h-13Z"></path><path fill="#0267cc" fill-rule="evenodd" d="m4,50.52c0,2.49,2.01,4.5,4.5,4.5h8.5v-13.04H4v8.54h0Z"></path><path fill="#f9b406" fill-rule="evenodd" d="m16.87,21.98h19.13v10.04l13-.02V13.5c0-1.2-.48-2.34-1.32-3.19-.85-.85-2-1.32-3.19-1.31-8.03.03-24.23-.01-27.06-.02-.27,0-.53.11-.73.3-1.75,1.76.18,12.7.18,12.7Z"></path><path fill="#0ba84a" fill-rule="evenodd" d="m56.8,49.6c-6.53-5.53-20.8-17.58-20.8-17.58,0,0,14.26-12.06,20.8-17.58.58-.49,1.39-.6,2.08-.27.69.32,1.13,1.02,1.13,1.79v32.13c0,.77-.44,1.46-1.13,1.79-.69.33-1.5.22-2.08-.27h0Z"></path><polygon fill="#097a2b" fill-rule="evenodd" points="49 21.03 49 43.01 36 32.02 49 21.03 49 21.03"></polygon><path fill="#ef3930" fill-rule="evenodd" d="m17,21.98v-12.91c-.11.05-.21.12-.3.21-1.75,1.76-10.65,10.65-12.4,12.4-.09.09-.16.19-.21.3h12.91Z"></path></svg>
