<svg xmlns="http://www.w3.org/2000/svg" width="48" height="48" fill="none" viewBox="0 0 48 48" id="shopify"><path fill="#95BF47" fill-rule="evenodd" d="M39.5162 8.96641C39.6859 8.9947 39.9122 9.10784 39.9405 9.3624C39.9574 9.51497 41.8335 22.2041 43.3343 32.3545C44.3377 39.1409 45.1732 44.7924 45.1732 44.8038L30.3518 48L3 42.8804C3 42.8804 6.50737 15.7266 6.64879 14.7366C6.8185 13.4638 6.87507 13.4355 8.20448 13.0112C8.3271 12.9805 8.88159 12.8087 9.74646 12.5407C10.4776 12.3141 11.4307 12.0187 12.5321 11.6818C13.4655 7.75015 16.4072 0.0282852 22.6017 0C23.3936 0 24.327 0.452563 25.0907 1.44255H25.317C27.9758 1.44255 29.5032 3.70536 30.3235 6.16618C31.2004 5.88332 31.7378 5.71361 31.7661 5.71361C31.9923 5.65704 32.5298 5.57219 32.8126 5.85504C33.0672 6.13789 35.6411 8.68356 35.6411 8.68356C35.6411 8.68356 39.3465 8.93813 39.5162 8.96641ZM27.1432 7.1642C27.7508 6.98404 28.319 6.81556 28.8244 6.64707C28.2587 4.86511 27.3253 3.30942 25.9393 3.11142C26.2787 4.07312 26.505 5.31767 26.505 6.84507V7.3542C26.7218 7.28918 26.9348 7.226 27.1432 7.1642ZM24.2705 3.42242C24.6382 4.38412 24.8928 5.74181 24.8928 7.58035V7.83491C23.3937 8.28746 21.7533 8.79656 20.1128 9.30567L20.1126 9.30574C21.046 5.79838 22.7714 4.07298 24.2705 3.42242ZM23.2239 1.95163C22.9694 1.78192 22.6865 1.69707 22.4319 1.69707C17.9912 1.69707 15.5021 7.52382 14.4272 11.0878C15.6152 10.72 16.9163 10.3241 18.2174 9.92806C19.1226 5.23272 21.244 2.88504 23.2239 1.95163Z" clip-rule="evenodd"></path><path fill="#5E8E3E" d="M39.5162 8.96639C39.3465 8.9381 35.6411 8.68354 35.6411 8.68354C35.6411 8.68354 33.0672 6.13787 32.8126 5.85501C32.6995 5.74187 32.558 5.6853 32.4166 5.6853L30.3518 48L45.1732 44.8037C45.1732 44.8037 39.9688 9.61695 39.9405 9.39067C39.9122 9.1361 39.6859 8.99467 39.5162 8.96639Z"></path><path fill="#fff" d="M25.317 17.1691L23.4785 22.5999C23.4785 22.5999 21.8662 21.7513 19.9145 21.7513C17.0295 21.7513 16.888 23.5616 16.888 24.0142C16.888 26.5033 23.3653 27.4367 23.3653 33.2634C23.3653 37.8456 20.452 40.7873 16.5486 40.7873C11.8533 40.7873 9.44902 37.8739 9.44902 37.8739L10.6936 33.716C10.6936 33.716 13.1544 35.8374 15.2475 35.8374C16.6052 35.8374 17.1709 34.7625 17.1709 33.9705C17.1709 30.7177 11.8533 30.5763 11.8533 25.2587C11.8533 20.7896 15.0778 16.4337 21.5551 16.4337C24.1008 16.462 25.317 17.1691 25.317 17.1691Z"></path></svg>
