<svg xmlns="http://www.w3.org/2000/svg" enable-background="new 0 0 500 500" viewBox="0 0 500 500" id="support"><path fill="#fd9d4c" d="M249.8,134c-41.1,0-76,32-79.3,72.9c-0.2,2.4-0.3,4.5-0.3,6.6v13.6c36.9-12.7,53.9-32.7,61.5-47.7
		c2.8-5.5,8.1-8.9,14.1-9.2c6-0.3,11.5,2.5,14.8,7.6l1.1,1.7c11.1,17.1,25.1,37.9,67.5,43.6v-9.7c0-21.2-8.3-41.2-23.2-56.3
		C291,142.2,271,134,249.8,134z"></path><path fill="#f167de" d="M346,215v52.9c0,5.1-0.4,10.1-1.2,15.2c14.7-2.3,26.1-16.7,26.1-34.2C370.9,232,360.1,217.8,346,215z"></path><path fill="#8495a6" d="M203.8,369.2c-0.5-0.1-1-0.2-1.5-0.2c-0.9,0-1.7,0.2-2.5,0.6c-1.2,0.7-2.2,1.8-2.6,3.2l-0.6,2
		c-0.4,1.3-0.2,2.8,0.4,4c0.7,1.2,1.8,2.1,3.1,2.5l30.6,9c1.4,0.4,2.8,0.3,4-0.4c1.2-0.7,2.2-1.8,2.6-3.2l0.6-2
		c0.4-1.3,0.2-2.8-0.4-4c-0.7-1.2-1.8-2.1-3.2-2.5L203.8,369.2z"></path><path fill="#c8d6e4" d="M248.2,188.3l-1.1-1.7c-10.3,18.4-31,43.2-76.5,57.5l-0.4-1.3v24.6c0,7,0.9,14.1,2.8,21.1
		c9.5,34.4,41.1,58.4,76.8,58.4c43.8,0,79.5-35.7,79.5-79.5v-27.9C277.5,233.4,260,206.5,248.2,188.3z"></path><path fill="#f167de" d="M155.2,281.5c-0.7-4.7-1.1-9.4-1.1-14v-52.9c-14.2,2.9-24.9,17-24.9,33.9c0,17.4,11.4,31.9,26.1,34.2
		C155.2,282.3,155.2,281.9,155.2,281.5z"></path><path fill="#332195" d="M363,204.8c-0.6-34.8-11.3-62.3-31.7-81.7c-34-32.1-82.1-29.9-83.7-29.8c-34.5,0.1-61.8,10.4-81.3,30.7
		c-27.6,28.9-30.4,68.8-30.5,81.1c-13.6,8.8-22.9,24.9-22.9,43.4c0,19.6,10.3,36.4,25.3,44.8c-0.6,16.9,3.2,54.1,42.6,79.5
		c-0.8,4.7-0.3,9.5,2,13.7c2.8,5,7.3,8.7,12.8,10.3l30.6,9c2,0.6,4.1,0.9,6.1,0.9c3.5,0,7-0.9,10.2-2.6c5-2.7,8.7-7.3,10.3-12.8
		l0.6-2c1.6-5.5,1-11.3-1.7-16.4c-2.8-5-7.3-8.7-12.8-10.3l-2.4-0.7c4.4,0.6,8.8,1.1,13.3,1.1c41.5,0,76.8-26.6,90-63.7
		c0.3,0,0.5,0.1,0.7,0.1c25.6,0,46.5-22.7,46.5-50.7C387.1,229.8,377.3,213.4,363,204.8z M129.1,248.6c0-16.9,10.8-31.1,24.9-33.9
		v52.9c0,4.7,0.4,9.4,1.1,14c0.1,0.4,0,0.8,0.1,1.2C140.5,280.4,129.1,266,129.1,248.6z M192,355.4c-1.4,0.8-2.5,2-3.7,3.1
		c-28.9-19.2-33.9-45.3-34.1-59.9c1.7,0.2,3.4,0.6,5.2,0.6c0.1,0,0.3,0,0.4,0c8.8,24.9,27.4,44.6,50.8,55.2l-2.2-0.6
		C202.8,352.1,197,352.7,192,355.4z M237.5,380.8c0.7,1.2,0.8,2.7,0.4,4l-0.6,2c-0.4,1.4-1.3,2.5-2.6,3.2c-1.2,0.7-2.7,0.8-4,0.4
		l-30.6-9c-1.4-0.4-2.5-1.3-3.1-2.5c-0.7-1.3-0.8-2.7-0.4-4l0.6-2c0.4-1.4,1.3-2.5,2.6-3.2c0.8-0.4,1.6-0.6,2.5-0.6
		c0.5,0,1,0.1,1.5,0.2l30.6,9C235.7,378.7,236.8,379.6,237.5,380.8z M329.3,267.5c0,43.8-35.7,79.5-79.5,79.5
		c-35.8,0-67.4-24-76.8-58.4c-1.9-7-2.8-14.1-2.8-21.1v-24.6l0.4,1.3c45.5-14.3,66.2-39.1,76.5-57.5l1.1,1.7
		c11.8,18.1,29.3,45.1,81.1,51.3V267.5z M329.3,223.1c-42.5-5.7-56.5-26.5-67.5-43.6l-1.1-1.7c-3.3-5.1-8.8-7.9-14.8-7.6
		c-6.1,0.3-11.3,3.8-14.1,9.2c-7.6,14.9-24.7,34.9-61.5,47.7v-13.6c0-2.1,0.1-4.3,0.3-6.6c3.4-40.8,38.2-72.9,79.3-72.9
		c21.2,0,41.2,8.3,56.2,23.2c15,15.1,23.2,35.1,23.2,56.3V223.1z M317.5,145.7c-18.2-18-42.2-27.9-67.7-27.9
		c-46.8,0-86.5,34.7-94.1,80.5c-1.1,0.1-2.3,0.2-3.4,0.4c1.2-14.6,6-42.9,25.8-63.6c16.3-17,39.7-25.6,69.9-25.7
		c0.4,0,43.1-2,72.1,25.4c16,15.1,24.4,36.8,26.1,64c-0.7-0.1-1.3-0.2-2-0.2C341.2,178.8,332,160.3,317.5,145.7z M344.8,283
		c0.8-5.1,1.2-10.2,1.2-15.2V215c14.2,2.9,24.9,17,24.9,33.9C370.9,266.3,359.5,280.7,344.8,283z"></path></svg>
